<?xml version="1.0" encoding="UTF-8" standalone="no"?>
<!-- Created with Inkscape (http://www.inkscape.org/) -->

<svg
   xmlns:dc="http://purl.org/dc/elements/1.1/"
   xmlns:cc="http://creativecommons.org/ns#"
   xmlns:rdf="http://www.w3.org/1999/02/22-rdf-syntax-ns#"
   xmlns:svg="http://www.w3.org/2000/svg"
   xmlns="http://www.w3.org/2000/svg"
   xmlns:sodipodi="http://sodipodi.sourceforge.net/DTD/sodipodi-0.dtd"
   xmlns:inkscape="http://www.inkscape.org/namespaces/inkscape"
   width="744.09448819"
   height="1052.3622047"
   id="svg2"
   version="1.1"
   inkscape:version="0.47 r22583"
   sodipodi:docname="RootsLogo.svg">
  <defs
     id="defs4">
    <inkscape:perspective
       sodipodi:type="inkscape:persp3d"
       inkscape:vp_x="0 : 526.18109 : 1"
       inkscape:vp_y="0 : 1000 : 0"
       inkscape:vp_z="744.09448 : 526.18109 : 1"
       inkscape:persp3d-origin="372.04724 : 350.78739 : 1"
       id="perspective10" />
    <inkscape:perspective
       id="perspective4292"
       inkscape:persp3d-origin="0.5 : 0.33333333 : 1"
       inkscape:vp_z="1 : 0.5 : 1"
       inkscape:vp_y="0 : 1000 : 0"
       inkscape:vp_x="0 : 0.5 : 1"
       sodipodi:type="inkscape:persp3d" />
    <inkscape:perspective
       id="perspective4317"
       inkscape:persp3d-origin="0.5 : 0.33333333 : 1"
       inkscape:vp_z="1 : 0.5 : 1"
       inkscape:vp_y="0 : 1000 : 0"
       inkscape:vp_x="0 : 0.5 : 1"
       sodipodi:type="inkscape:persp3d" />
    <inkscape:perspective
       id="perspective6036"
       inkscape:persp3d-origin="0.5 : 0.33333333 : 1"
       inkscape:vp_z="1 : 0.5 : 1"
       inkscape:vp_y="0 : 1000 : 0"
       inkscape:vp_x="0 : 0.5 : 1"
       sodipodi:type="inkscape:persp3d" />
    <inkscape:perspective
       id="perspective6036-9"
       inkscape:persp3d-origin="0.5 : 0.33333333 : 1"
       inkscape:vp_z="1 : 0.5 : 1"
       inkscape:vp_y="0 : 1000 : 0"
       inkscape:vp_x="0 : 0.5 : 1"
       sodipodi:type="inkscape:persp3d" />
    <inkscape:perspective
       id="perspective6067"
       inkscape:persp3d-origin="0.5 : 0.33333333 : 1"
       inkscape:vp_z="1 : 0.5 : 1"
       inkscape:vp_y="0 : 1000 : 0"
       inkscape:vp_x="0 : 0.5 : 1"
       sodipodi:type="inkscape:persp3d" />
    <inkscape:perspective
       id="perspective6067-1"
       inkscape:persp3d-origin="0.5 : 0.33333333 : 1"
       inkscape:vp_z="1 : 0.5 : 1"
       inkscape:vp_y="0 : 1000 : 0"
       inkscape:vp_x="0 : 0.5 : 1"
       sodipodi:type="inkscape:persp3d" />
    <inkscape:perspective
       id="perspective6098"
       inkscape:persp3d-origin="0.5 : 0.33333333 : 1"
       inkscape:vp_z="1 : 0.5 : 1"
       inkscape:vp_y="0 : 1000 : 0"
       inkscape:vp_x="0 : 0.5 : 1"
       sodipodi:type="inkscape:persp3d" />
    <inkscape:perspective
       id="perspective6120"
       inkscape:persp3d-origin="0.5 : 0.33333333 : 1"
       inkscape:vp_z="1 : 0.5 : 1"
       inkscape:vp_y="0 : 1000 : 0"
       inkscape:vp_x="0 : 0.5 : 1"
       sodipodi:type="inkscape:persp3d" />
    <inkscape:perspective
       id="perspective6120-7"
       inkscape:persp3d-origin="0.5 : 0.33333333 : 1"
       inkscape:vp_z="1 : 0.5 : 1"
       inkscape:vp_y="0 : 1000 : 0"
       inkscape:vp_x="0 : 0.5 : 1"
       sodipodi:type="inkscape:persp3d" />
    <inkscape:perspective
       id="perspective6163"
       inkscape:persp3d-origin="0.5 : 0.33333333 : 1"
       inkscape:vp_z="1 : 0.5 : 1"
       inkscape:vp_y="0 : 1000 : 0"
       inkscape:vp_x="0 : 0.5 : 1"
       sodipodi:type="inkscape:persp3d" />
    <inkscape:perspective
       id="perspective6211"
       inkscape:persp3d-origin="0.5 : 0.33333333 : 1"
       inkscape:vp_z="1 : 0.5 : 1"
       inkscape:vp_y="0 : 1000 : 0"
       inkscape:vp_x="0 : 0.5 : 1"
       sodipodi:type="inkscape:persp3d" />
    <inkscape:perspective
       id="perspective6233"
       inkscape:persp3d-origin="0.5 : 0.33333333 : 1"
       inkscape:vp_z="1 : 0.5 : 1"
       inkscape:vp_y="0 : 1000 : 0"
       inkscape:vp_x="0 : 0.5 : 1"
       sodipodi:type="inkscape:persp3d" />
    <inkscape:perspective
       id="perspective6255"
       inkscape:persp3d-origin="0.5 : 0.33333333 : 1"
       inkscape:vp_z="1 : 0.5 : 1"
       inkscape:vp_y="0 : 1000 : 0"
       inkscape:vp_x="0 : 0.5 : 1"
       sodipodi:type="inkscape:persp3d" />
    <inkscape:perspective
       id="perspective3745"
       inkscape:persp3d-origin="0.5 : 0.33333333 : 1"
       inkscape:vp_z="1 : 0.5 : 1"
       inkscape:vp_y="0 : 1000 : 0"
       inkscape:vp_x="0 : 0.5 : 1"
       sodipodi:type="inkscape:persp3d" />
    <inkscape:perspective
       id="perspective3745-2"
       inkscape:persp3d-origin="0.5 : 0.33333333 : 1"
       inkscape:vp_z="1 : 0.5 : 1"
       inkscape:vp_y="0 : 1000 : 0"
       inkscape:vp_x="0 : 0.5 : 1"
       sodipodi:type="inkscape:persp3d" />
    <inkscape:perspective
       id="perspective3776"
       inkscape:persp3d-origin="0.5 : 0.33333333 : 1"
       inkscape:vp_z="1 : 0.5 : 1"
       inkscape:vp_y="0 : 1000 : 0"
       inkscape:vp_x="0 : 0.5 : 1"
       sodipodi:type="inkscape:persp3d" />
    <inkscape:perspective
       id="perspective3830"
       inkscape:persp3d-origin="0.5 : 0.33333333 : 1"
       inkscape:vp_z="1 : 0.5 : 1"
       inkscape:vp_y="0 : 1000 : 0"
       inkscape:vp_x="0 : 0.5 : 1"
       sodipodi:type="inkscape:persp3d" />
    <inkscape:perspective
       id="perspective3830-9"
       inkscape:persp3d-origin="0.5 : 0.33333333 : 1"
       inkscape:vp_z="1 : 0.5 : 1"
       inkscape:vp_y="0 : 1000 : 0"
       inkscape:vp_x="0 : 0.5 : 1"
       sodipodi:type="inkscape:persp3d" />
    <inkscape:perspective
       id="perspective3861"
       inkscape:persp3d-origin="0.5 : 0.33333333 : 1"
       inkscape:vp_z="1 : 0.5 : 1"
       inkscape:vp_y="0 : 1000 : 0"
       inkscape:vp_x="0 : 0.5 : 1"
       sodipodi:type="inkscape:persp3d" />
    <inkscape:perspective
       id="perspective3883"
       inkscape:persp3d-origin="0.5 : 0.33333333 : 1"
       inkscape:vp_z="1 : 0.5 : 1"
       inkscape:vp_y="0 : 1000 : 0"
       inkscape:vp_x="0 : 0.5 : 1"
       sodipodi:type="inkscape:persp3d" />
    <inkscape:perspective
       id="perspective3883-5"
       inkscape:persp3d-origin="0.5 : 0.33333333 : 1"
       inkscape:vp_z="1 : 0.5 : 1"
       inkscape:vp_y="0 : 1000 : 0"
       inkscape:vp_x="0 : 0.5 : 1"
       sodipodi:type="inkscape:persp3d" />
    <inkscape:perspective
       id="perspective3914"
       inkscape:persp3d-origin="0.5 : 0.33333333 : 1"
       inkscape:vp_z="1 : 0.5 : 1"
       inkscape:vp_y="0 : 1000 : 0"
       inkscape:vp_x="0 : 0.5 : 1"
       sodipodi:type="inkscape:persp3d" />
    <inkscape:perspective
       id="perspective3964"
       inkscape:persp3d-origin="0.5 : 0.33333333 : 1"
       inkscape:vp_z="1 : 0.5 : 1"
       inkscape:vp_y="0 : 1000 : 0"
       inkscape:vp_x="0 : 0.5 : 1"
       sodipodi:type="inkscape:persp3d" />
    <inkscape:perspective
       id="perspective3986"
       inkscape:persp3d-origin="0.5 : 0.33333333 : 1"
       inkscape:vp_z="1 : 0.5 : 1"
       inkscape:vp_y="0 : 1000 : 0"
       inkscape:vp_x="0 : 0.5 : 1"
       sodipodi:type="inkscape:persp3d" />
    <inkscape:perspective
       id="perspective4010"
       inkscape:persp3d-origin="0.5 : 0.33333333 : 1"
       inkscape:vp_z="1 : 0.5 : 1"
       inkscape:vp_y="0 : 1000 : 0"
       inkscape:vp_x="0 : 0.5 : 1"
       sodipodi:type="inkscape:persp3d" />
    <inkscape:perspective
       id="perspective4033"
       inkscape:persp3d-origin="0.5 : 0.33333333 : 1"
       inkscape:vp_z="1 : 0.5 : 1"
       inkscape:vp_y="0 : 1000 : 0"
       inkscape:vp_x="0 : 0.5 : 1"
       sodipodi:type="inkscape:persp3d" />
    <inkscape:perspective
       id="perspective4117"
       inkscape:persp3d-origin="0.5 : 0.33333333 : 1"
       inkscape:vp_z="1 : 0.5 : 1"
       inkscape:vp_y="0 : 1000 : 0"
       inkscape:vp_x="0 : 0.5 : 1"
       sodipodi:type="inkscape:persp3d" />
  </defs>
  <sodipodi:namedview
     id="base"
     pagecolor="#ffffff"
     bordercolor="#666666"
     borderopacity="1.0"
     inkscape:pageopacity="0.0"
     inkscape:pageshadow="2"
     inkscape:zoom="0.48638596"
     inkscape:cx="60.378091"
     inkscape:cy="600.03306"
     inkscape:document-units="px"
     inkscape:current-layer="layer1"
     showgrid="false"
     inkscape:window-width="1920"
     inkscape:window-height="1031"
     inkscape:window-x="0"
     inkscape:window-y="0"
     inkscape:window-maximized="1"
     showguides="true"
     inkscape:guide-bbox="true"
     inkscape:snap-bbox="false"
     inkscape:bbox-nodes="true" />
  <metadata
     id="metadata7">
    <rdf:RDF>
      <cc:Work
         rdf:about="">
        <dc:format>image/svg+xml</dc:format>
        <dc:type
           rdf:resource="http://purl.org/dc/dcmitype/StillImage" />
        <dc:title />
      </cc:Work>
    </rdf:RDF>
  </metadata>
  <g
     inkscape:label="Layer 1"
     inkscape:groupmode="layer"
     id="layer1">
    <path
       style="fill:#ffffff;stroke:#000000;stroke-width:2;stroke-linecap:butt;stroke-miterlimit:4;stroke-dasharray:none;stroke-dashoffset:0;marker-start:none;marker-mid:none"
       d="m 294.90694,278.50382 -2.68518,496.44601 77.80584,-137.80605 c -6.95501,-4.39828 -9.07743,-13.68099 -4.75,-20.75 4.32744,-7.06901 13.48248,-9.24203 20.4375,-4.84375 6.95502,4.39828 9.07744,13.68099 4.75,20.75 -1.22027,1.99334 -2.87348,3.68091 -4.84375,4.90625 l -0.9513,0.55109 75.83775,137.19246 3.52413,-496.44601 -169.12499,0 z"
       id="path2867"
       sodipodi:nodetypes="cccsssccccc"
       inkscape:export-filename="/home/frachris/Desktop/bbb/Docu/flowRoot4077.png"
       inkscape:export-xdpi="1200"
       inkscape:export-ydpi="1200" />
    <path
       style="fill:#ffffff;stroke:#000000;stroke-width:1.88707471;stroke-linecap:butt;stroke-miterlimit:4;stroke-dasharray:none;stroke-dashoffset:0;marker-start:none;marker-mid:none"
       d="m 300.39696,284.1781 -2.5207,470.8062 68.20159,-116.89443 c -8.99964,-5.61233 -8.23513,-18.91614 -3.01784,-25.23726 5.15164,-6.2416 13.43247,-8.12293 20.83271,-5.82891 4.3086,1.33563 7.50799,4.29389 9.04825,6.39963 2.31141,3.16001 4.19186,8.13921 2.71975,15.02873 -1.24021,5.80425 -4.24161,7.71148 -7.01769,10.2118 l 67.21107,116.32044 3.30826,-470.8062 -158.7654,0 z"
       id="path2867-8"
       sodipodi:nodetypes="cccsssscccc"
       inkscape:export-filename="/home/frachris/Desktop/bbb/Docu/flowRoot4077.png"
       inkscape:export-xdpi="1200"
       inkscape:export-ydpi="1200" />
  </g>
  <g
     inkscape:groupmode="layer"
     id="layer2"
     inkscape:label="H1">
    <path
       style="fill:none;stroke:#000000;stroke-width:2;stroke-linecap:butt;stroke-linejoin:miter;stroke-miterlimit:4;stroke-opacity:1;stroke-dasharray:none"
       d="m 377.70764,605.38339 0.58602,-320.92035"
       id="path4307"
       sodipodi:nodetypes="cc"
       inkscape:export-filename="/home/frachris/Desktop/bbb/Docu/flowRoot4077.png"
       inkscape:export-xdpi="1200"
       inkscape:export-ydpi="1200" />
    <path
       style="fill:none;stroke:#000000;stroke-width:1.7097975;stroke-linecap:butt;stroke-linejoin:miter;stroke-miterlimit:4;stroke-opacity:1;stroke-dasharray:none"
       d="M 300.11721,469.78988 456.9817,470.6661"
       id="path4307-8"
       sodipodi:nodetypes="cc"
       inkscape:export-filename="/home/frachris/Desktop/bbb/Docu/flowRoot4077.png"
       inkscape:export-xdpi="1200"
       inkscape:export-ydpi="1200" />
    <path
       style="fill:#008000;stroke:#008000;stroke-width:0.23509242;stroke-linecap:butt;stroke-linejoin:miter;stroke-miterlimit:4;stroke-dasharray:none;stroke-dashoffset:0;marker-start:none"
       d="m 299.19353,696.9691 c 0.003,-3.33496 0.79778,-149.15025 0.81319,-149.22537 0.003,-0.0162 17.28033,-0.0294 38.39337,-0.0294 l 38.38733,0 -0.0828,28.65189 c -0.0455,15.75854 -0.0998,28.67144 -0.12051,28.69532 -0.0207,0.0239 -0.49129,0.0894 -1.04564,0.1456 -6.63179,0.6722 -12.50082,4.58034 -15.20931,10.12776 -2.6228,5.37191 -2.80747,12.01883 -0.47495,17.09492 0.92746,2.01835 2.55729,4.12501 4.27261,5.52262 l 0.58037,0.47288 -18.16682,31.13771 -18.16683,31.13769 -14.59182,0.0299 -14.59182,0.0298 0.004,-3.79132 0,0 z"
       id="path4337"
       inkscape:export-filename="/home/frachris/Desktop/bbb/Docu/flowRoot4077.png"
       inkscape:export-xdpi="1200"
       inkscape:export-ydpi="1200" />
    <path
       style="fill:#008000;stroke:#008000;stroke-width:0.264;stroke-linecap:butt;stroke-linejoin:miter;stroke-miterlimit:4;stroke-dasharray:none;stroke-dashoffset:0;marker-start:none"
       d="m 300.02414,565.07477 c -0.004,-3.48189 0.38353,-94.30437 0.4029,-94.33646 0.0416,-0.0689 76.48883,0.34908 76.54425,0.41876 0.0341,0.0429 -0.11179,21.83764 -0.15999,48.21401 l -0.0877,47.95704 -38.34833,0 -38.34833,0 -0.003,-2.25335 2e-4,0 z"
       id="path4339"
       sodipodi:nodetypes="csscccccc"
       inkscape:export-filename="/home/frachris/Desktop/bbb/Docu/flowRoot4077.png"
       inkscape:export-xdpi="1200"
       inkscape:export-ydpi="1200" />
    <path
       style="fill:#008000;stroke:#008000;stroke-width:0.23509242;stroke-linecap:butt;stroke-linejoin:miter;stroke-miterlimit:4;stroke-dasharray:none;stroke-dashoffset:0"
       d="m 299.00034,731.71 c 0.0401,-10.635 0.1069,-21.91502 0.14843,-25.06673 l 0.0755,-5.73038 14.50671,0 c 7.97869,0 14.48503,0.0397 14.45854,0.0882 -0.45099,0.82533 -29.25045,50.30772 -29.32973,50.39064 -0.0715,0.0748 0.0941,-7.38041 0.14051,-19.68169 l 4e-5,-4e-5 z"
       id="path4341"
       sodipodi:nodetypes="ccccsscc"
       inkscape:export-filename="/home/frachris/Desktop/bbb/Docu/flowRoot4077.png"
       inkscape:export-xdpi="1200"
       inkscape:export-ydpi="1200" />
    <path
       style="fill:#008000;stroke:#008000;stroke-width:0.23509242;stroke-linecap:butt;stroke-linejoin:miter;stroke-miterlimit:4;stroke-dasharray:none;stroke-dashoffset:0;marker-start:none"
       d="m 299.00622,727.83097 c 0.0462,-12.83311 0.10351,-25.92481 0.12741,-29.09268 0.0239,-3.16787 0.1002,-18.66634 0.16956,-34.44104 0.0694,-15.7747 0.15761,-30.12269 0.19611,-31.88441 l 0.07,-3.20313 29.61196,0 c 23.58695,0 29.62121,0.0299 29.65744,0.14693 0.56419,1.82285 0.80337,2.45338 1.30425,3.43822 0.86457,1.69996 1.56338,2.63802 3.16769,4.25218 l 1.42233,1.43106 -18.16641,31.15498 -18.16641,31.15498 -6.93523,0.0321 -6.93523,0.0321 6.84707,0.0313 c 3.76589,0.0172 6.84707,0.0594 6.84707,0.0938 0,0.0681 -29.10263,49.14591 -29.2335,49.10953 -0.37026,-0.10292 -0.0303,-9.42279 0.0159,-22.2559 l 3e-5,-2e-5 10e-6,0 z"
       id="path4343"
       sodipodi:nodetypes="csscccsscccccccssccc"
       inkscape:export-filename="/home/frachris/Desktop/bbb/Docu/flowRoot4077.png"
       inkscape:export-xdpi="1200"
       inkscape:export-ydpi="1200" />
    <path
       style="fill:#008000;stroke:#008000;stroke-width:0.13747916;stroke-linecap:butt;stroke-linejoin:miter;stroke-miterlimit:4;stroke-dasharray:none;stroke-dashoffset:0"
       d="m 419.45682,469.5703 c -17.63685,-0.10512 -33.95651,-0.1936 -36.2659,-0.19663 l -4.46746,-0.0498 0.29208,-19.66631 c 0.0129,-10.84109 0.0425,-22.3481 0.0657,-25.57113 l 0.0422,-5.86005 39.07685,0 39.07685,0 -0.0415,2.21686 c -0.0228,1.21926 -0.10464,12.53294 -0.18183,25.1415 -0.0772,12.60855 -0.15724,23.21077 -0.1779,23.56048 l -0.0375,0.63585 -2.65724,-0.01 c -1.46149,-0.005 -17.0874,-0.0956 -34.72426,-0.20072 l -9e-5,-9e-5 z"
       id="path4347"
       sodipodi:nodetypes="cccccccccsccccc"
       inkscape:export-filename="/home/frachris/Desktop/bbb/Docu/flowRoot4077.png"
       inkscape:export-xdpi="1200"
       inkscape:export-ydpi="1200" />
    <path
       style="fill:#008000;stroke:#008000;stroke-width:0.4382937;stroke-linecap:butt;stroke-linejoin:miter;stroke-miterlimit:4;stroke-dasharray:none;stroke-dashoffset:0"
       d="m 379.2121,378.90747 c 0.0235,-31.4408 0.10414,-65.38951 0.1791,-75.44157 l 0.13632,-18.27646 39.24826,0 39.24826,0 -0.003,7.88281 c -0.002,4.33556 -0.18539,35.99824 -0.40783,70.36151 -0.22244,34.36327 -0.40597,64.76469 -0.40784,67.55871 l -0.003,5.08004 -39.01613,3e-5 -39.01612,2e-5 0.0428,-57.16509 z"
       id="path4349"
       inkscape:export-filename="/home/frachris/Desktop/bbb/Docu/flowRoot4077.png"
       inkscape:export-xdpi="1200"
       inkscape:export-ydpi="1200" />
    <path
       style="fill:#88aa00;stroke:#88aa00;stroke-width:1.16355145;stroke-linecap:butt;stroke-linejoin:miter;stroke-miterlimit:4;stroke-dasharray:none;stroke-dashoffset:0"
       d="m 300.98014,409.05235 c 0.21263,-32.8776 0.38674,-74.11096 0.38691,-91.62968 l 3.1e-4,-31.85222 37.81543,0 37.81541,0 -10e-4,75.4854 c -5.8e-4,41.51697 -0.17362,82.75033 -0.38445,91.62968 l -0.1147,16.14428 -38.08646,0 -37.81789,0 0.3866,-59.77746 -1.6e-4,0 z"
       id="path4351"
       sodipodi:nodetypes="cccccccccccc"
       inkscape:export-filename="/home/frachris/Desktop/bbb/Docu/flowRoot4077.png"
       inkscape:export-xdpi="1200"
       inkscape:export-ydpi="1200" />
    <path
       style="fill:#88aa00;stroke:#88aa00;stroke-width:1.16355145;stroke-linecap:butt;stroke-linejoin:miter;stroke-miterlimit:4;stroke-dasharray:none;stroke-dashoffset:0"
       d="m 422.18705,694.14291 -31.82341,-55.07887 2.01521,-2.06862 c 3.36813,-3.45743 4.65322,-7.06591 4.67327,-13.12238 0.0152,-4.57294 -0.1882,-5.65454 -1.60586,-8.54139 -2.58288,-5.25965 -8.06879,-9.20369 -14.04917,-10.1005 l -2.83719,-0.42547 0.3827,-16.59543 c 0.21049,-9.12749 0.3827,-39.1475 0.3827,-66.71115 l 0,-50.11572 38.54265,0.24424 c 21.19845,0.13433 38.58616,0.27972 38.63935,0.3231 0.2743,0.22368 -1.82359,277.61229 -2.10183,277.89038 -0.18007,0.17997 -14.71555,-25.40481 -32.21842,-55.69819 l 0,0 z"
       id="path4353"
       sodipodi:nodetypes="cccssccccccsscc"
       inkscape:export-filename="/home/frachris/Desktop/bbb/Docu/flowRoot4077.png"
       inkscape:export-xdpi="1200"
       inkscape:export-ydpi="1200" />
    <path
       sodipodi:type="arc"
       style="fill:#ffffff;stroke:#000000;stroke-width:1.26651537;stroke-miterlimit:4;stroke-dasharray:none"
       id="path6026-2-8"
       sodipodi:cx="61.668228"
       sodipodi:cy="292.85394"
       sodipodi:rx="16.871496"
       sodipodi:ry="17.162384"
       d="m 78.539723,292.86033 a 16.871496,17.162384 0 1 1 -33.742859,-0.0743 l 16.871364,0.0679 z"
       sodipodi:start="0.00037234463"
       sodipodi:end="3.1455502"
       transform="matrix(1.5661714,0,0,1.592208,340.27753,-186.70361)"
       inkscape:export-filename="/home/frachris/Desktop/bbb/Docu/flowRoot4077.png"
       inkscape:export-xdpi="1200"
       inkscape:export-ydpi="1200" />
    <path
       sodipodi:type="arc"
       style="fill:#ffffff;stroke:#000000;stroke-width:1.07888734;stroke-miterlimit:4;stroke-dasharray:none"
       id="path6026-2-8-7"
       sodipodi:cx="61.668228"
       sodipodi:cy="292.85394"
       sodipodi:rx="16.871496"
       sodipodi:ry="17.162384"
       d="m 78.539723,292.86033 a 16.871496,17.162384 0 1 1 -33.742859,-0.0743 l 16.871364,0.0679 z"
       sodipodi:start="0.00037234463"
       sodipodi:end="3.1455502"
       transform="matrix(1.7915277,0,0,1.9975731,269.10286,-305.19224)"
       inkscape:export-filename="/home/frachris/Desktop/bbb/Docu/flowRoot4077.png"
       inkscape:export-xdpi="1200"
       inkscape:export-ydpi="1200" />
    <path
       sodipodi:type="arc"
       style="fill:#ffffff;stroke:#000000;stroke-width:1.26913869;stroke-miterlimit:4;stroke-dasharray:none"
       id="path6026-2-8-0"
       sodipodi:cx="61.668228"
       sodipodi:cy="292.85394"
       sodipodi:rx="16.871496"
       sodipodi:ry="17.162384"
       d="m 78.539723,292.86033 a 16.871496,17.162384 0 1 1 -33.742859,-0.0743 l 16.871364,0.0679 z"
       sodipodi:start="0.00037234463"
       sodipodi:end="3.1455502"
       transform="matrix(1.5663648,0,0,1.5854368,225.88789,-184.60114)"
       inkscape:export-filename="/home/frachris/Desktop/bbb/Docu/flowRoot4077.png"
       inkscape:export-xdpi="1200"
       inkscape:export-ydpi="1200" />
    <path
       style="fill:none;stroke:#000000;stroke-width:8.5;stroke-linecap:butt;stroke-linejoin:miter;stroke-miterlimit:4;stroke-opacity:1;stroke-dasharray:none"
       d="m 275.81194,276.70174 206.96704,-0.49931 0,0"
       id="path6145"
       sodipodi:nodetypes="ccc"
       inkscape:export-filename="/home/frachris/Desktop/bbb/Docu/flowRoot4077.png"
       inkscape:export-xdpi="1200"
       inkscape:export-ydpi="1200" />
    <path
       sodipodi:type="arc"
       style="fill:#000000;stroke:#000000;stroke-width:8.5;stroke-linecap:butt;stroke-linejoin:miter;stroke-miterlimit:4;stroke-dasharray:none;stroke-dashoffset:0"
       id="path6153"
       sodipodi:cx="200.8504"
       sodipodi:cy="256.69998"
       sodipodi:rx="59.793255"
       sodipodi:ry="59.918083"
       d="m 150.67303,224.11342 a 59.793255,59.918083 0 1 1 -0.0885,0.13731 l 50.26591,32.44925 z"
       sodipodi:start="3.716613"
       sodipodi:end="9.9970699"
       transform="matrix(0.16730804,0,0,0.15698438,250.85944,235.73367)"
       inkscape:export-filename="/home/frachris/Desktop/bbb/Docu/flowRoot4077.png"
       inkscape:export-xdpi="1200"
       inkscape:export-ydpi="1200" />
    <path
       sodipodi:type="arc"
       style="fill:#000000;stroke:#000000;stroke-width:8.5;stroke-linecap:butt;stroke-linejoin:miter;stroke-miterlimit:4;stroke-dasharray:none;stroke-dashoffset:0"
       id="path6153-9"
       sodipodi:cx="200.8504"
       sodipodi:cy="256.69998"
       sodipodi:rx="59.793255"
       sodipodi:ry="59.918083"
       d="m 150.67303,224.11342 a 59.793255,59.918083 0 1 1 -0.0885,0.13731 l 50.26591,32.44925 z"
       sodipodi:start="3.716613"
       sodipodi:end="9.9970699"
       transform="matrix(0.15724317,0,0,0.15732343,442.88786,235.6636)"
       inkscape:export-filename="/home/frachris/Desktop/bbb/Docu/flowRoot4077.png"
       inkscape:export-xdpi="1200"
       inkscape:export-ydpi="1200" />
    <path
       sodipodi:type="arc"
       style="fill:#ffffff;stroke:#000000;stroke-width:1.26913869;stroke-miterlimit:4;stroke-dasharray:none"
       id="path6026-2-8-0-9"
       sodipodi:cx="61.668228"
       sodipodi:cy="292.85394"
       sodipodi:rx="16.871496"
       sodipodi:ry="17.162384"
       d="m 78.539723,292.86033 a 16.871496,17.162384 0 1 1 -33.742859,-0.0743 l 16.871364,0.0679 z"
       sodipodi:start="0.00037234463"
       sodipodi:end="3.1455502"
       transform="matrix(1.4074069,0,0,1.3892423,235.70783,-126.77559)"
       inkscape:export-filename="/home/frachris/Desktop/bbb/Docu/flowRoot4077.png"
       inkscape:export-xdpi="1200"
       inkscape:export-ydpi="1200" />
    <path
       sodipodi:type="arc"
       style="fill:#ffffff;stroke:#000000;stroke-width:1.26651537;stroke-miterlimit:4;stroke-dasharray:none"
       id="path6026-2-8-3"
       sodipodi:cx="61.668228"
       sodipodi:cy="292.85394"
       sodipodi:rx="16.871496"
       sodipodi:ry="17.162384"
       d="m 78.539723,292.86033 a 16.871496,17.162384 0 1 1 -33.742859,-0.0743 l 16.871364,0.0679 z"
       sodipodi:start="0.00037234463"
       sodipodi:end="3.1455502"
       transform="matrix(1.391495,0,0,1.3943266,351.0761,-128.44622)"
       inkscape:export-filename="/home/frachris/Desktop/bbb/Docu/flowRoot4077.png"
       inkscape:export-xdpi="1200"
       inkscape:export-ydpi="1200" />
    <path
       sodipodi:type="arc"
       style="fill:#ffffff;stroke:#000000;stroke-width:1.07888734;stroke-miterlimit:4;stroke-dasharray:none"
       id="path6026-2-8-7-3"
       sodipodi:cx="61.668228"
       sodipodi:cy="292.85394"
       sodipodi:rx="16.871496"
       sodipodi:ry="17.162384"
       d="m 78.539723,292.86033 a 16.871496,17.162384 0 1 1 -33.742859,-0.0743 l 16.871364,0.0679 z"
       sodipodi:start="0.00037234463"
       sodipodi:end="3.1455502"
       transform="matrix(1.6233921,0,0,1.8228585,279.73433,-253.8601)"
       inkscape:export-filename="/home/frachris/Desktop/bbb/Docu/flowRoot4077.png"
       inkscape:export-xdpi="1200"
       inkscape:export-ydpi="1200" />
  </g>
  <g
     inkscape:groupmode="layer"
     id="layer3"
     inkscape:label="logo">
    <rect
       style="fill:#666666;fill-opacity:1;stroke:#000000;stroke-width:3;stroke-linecap:butt;stroke-linejoin:miter;stroke-miterlimit:4;stroke-dasharray:none;stroke-dashoffset:0"
       id="rect3954"
       width="14.097777"
       height="14.299174"
       x="416.7308"
       y="-20.072525"
       transform="matrix(0.73788963,0.6749214,-0.6749214,0.73788963,0,0)"
       inkscape:export-filename="/home/frachris/Desktop/bbb/Docu/flowRoot4077.png"
       inkscape:export-xdpi="1200"
       inkscape:export-ydpi="1200" />
    <rect
       style="fill:#666666;fill-opacity:1;stroke:#000000;stroke-width:3.83600473;stroke-linecap:butt;stroke-linejoin:miter;stroke-miterlimit:4;stroke-dasharray:none;stroke-dashoffset:0"
       id="rect3954-6"
       width="18.086246"
       height="18.223381"
       x="455.90363"
       y="-44.108257"
       transform="matrix(0.76237215,0.64713886,-0.70195402,0.71222226,0,0)"
       inkscape:export-filename="/home/frachris/Desktop/bbb/Docu/flowRoot4077.png"
       inkscape:export-xdpi="1200"
       inkscape:export-ydpi="1200" />
    <rect
       style="fill:#666666;fill-opacity:1;stroke:#000000;stroke-width:3;stroke-linecap:butt;stroke-linejoin:miter;stroke-miterlimit:4;stroke-dasharray:none;stroke-dashoffset:0"
       id="rect3954-6-3"
       width="14.097777"
       height="14.299174"
       x="501.73486"
       y="-97.822807"
       transform="matrix(0.73788963,0.6749214,-0.6749214,0.73788963,0,0)"
       inkscape:export-filename="/home/frachris/Desktop/bbb/Docu/flowRoot4077.png"
       inkscape:export-xdpi="1200"
       inkscape:export-ydpi="1200" />
    <path
       sodipodi:type="arc"
       style="fill:#ffffff;fill-opacity:1;stroke:#000000;stroke-width:1.48170805;stroke-linecap:butt;stroke-linejoin:miter;stroke-miterlimit:4;stroke-dasharray:none;stroke-dashoffset:0"
       id="path4000"
       sodipodi:cx="239.72864"
       sodipodi:cy="443.71591"
       sodipodi:rx="35.603264"
       sodipodi:ry="36.959579"
       d="m 204.13818,444.70729 a 35.603264,36.959579 0 1 1 8e-5,0.003"
       sodipodi:start="3.114766"
       sodipodi:end="9.3978709"
       sodipodi:open="true"
       transform="matrix(1.4180134,0,0,1.2848558,38.377234,-100.64799)"
       inkscape:export-filename="/home/frachris/Desktop/bbb/Docu/flowRoot4077.png"
       inkscape:export-xdpi="1200"
       inkscape:export-ydpi="1200" />
    <path
       sodipodi:type="arc"
       style="fill:#ffffff;fill-opacity:1;stroke:#000000;stroke-width:1.64981842;stroke-linecap:butt;stroke-linejoin:miter;stroke-miterlimit:4;stroke-dasharray:none;stroke-dashoffset:0"
       id="path4000-4"
       sodipodi:cx="239.72864"
       sodipodi:cy="443.71591"
       sodipodi:rx="35.603264"
       sodipodi:ry="36.959579"
       d="m 204.13046,444.34074 a 35.603264,36.959579 0 1 1 1.2e-4,0.007"
       sodipodi:start="3.1246862"
       sodipodi:end="9.4076828"
       sodipodi:open="true"
       transform="matrix(1.2821707,0,0,1.160658,70.899764,-45.67944)"
       inkscape:export-filename="/home/frachris/Desktop/bbb/Docu/flowRoot4077.png"
       inkscape:export-xdpi="1200"
       inkscape:export-ydpi="1200" />
    <flowRoot
       xml:space="preserve"
       id="flowRoot3034"
       style="fill:black;stroke:none;stroke-opacity:1;stroke-width:1px;stroke-linejoin:miter;stroke-linecap:butt;fill-opacity:1;font-family:Bitstream Vera Sans;font-style:normal;font-weight:normal;font-size:40px"><flowRegion
         id="flowRegion3036"><rect
           id="rect3038"
           width="94.75"
           height="68.75"
           x="10.75"
           y="428.36218" /></flowRegion><flowPara
         id="flowPara3040" /></flowRoot>  </g>
  <g
     inkscape:groupmode="layer"
     id="layer4"
     inkscape:label="Layer">
    <g
       transform="matrix(2.4330441,0,0,2.333516,552.73765,-580.52244)"
       style="font-size:40px;font-style:normal;font-weight:normal;fill:#000000;fill-opacity:1;stroke:none;font-family:Bitstream Vera Sans"
       id="flowRoot4077"
       inkscape:export-xdpi="1200"
       inkscape:export-ydpi="1200">
      <path
         d="m -74.91,450.35707 2.32,0 c 1.559998,0 3.160001,0.48 4.04,1.2 1.159999,0.92 1.76,2.36001 2.04,5 l 0.2,2.04 c 0.48,4.52 -0.367274,6.16325 2.792723,6.16325 3.279997,0 9.242956,-3.97071 9.362956,-8.77071 L -57.91,457.95707 c -0.16,2.76 -0.640001,3.96 -1.72,3.96 -0.919999,0 -1.320001,-0.68 -2,-3.44 l -0.64,-2.52 c -0.879999,-3.67999 -2.440003,-5.36 -5.56,-6.16 5.759994,-0.8 8.52,-3.12 8.52,-7.16 0,-4.55999 -3.840007,-7.16 -10.56,-7.16 l -13.84,0 -1.795696,2.2781 2.515696,-0.3981 c 3.239997,0 3.6,0.20001 3.6,1.88 l 0,1.16 0,19.08 0,1.12 c 0,1.68 -0.360003,1.88 -3.6,1.88 l -2.282045,-0.34106 1.562045,2.22106 13.12,0 0,-1.88 -0.72,0 c -3.239997,0 -3.6,-0.2 -3.6,-1.88 l 0,-1.12 0,-9.12 m 0,-1.88 0,-8.8 c 0,-1.59999 0.04,-1.72 0.44,-2.04 0.32,-0.24 0.600002,-0.28 2.32,-0.28 l 2.16,0 c 3.959996,0 5.76,1.68001 5.76,5.32 0,2.04 -0.520001,3.6 -1.56,4.44 -0.999999,0.84 -2.800002,1.36 -4.72,1.36 l -4.4,0"
         style="font-family:Century Schoolbook L;-inkscape-font-specification:Century Schoolbook L"
         id="path3163"
         sodipodi:nodetypes="cccccsccscccsccccccccccccccccccccccsccc" />
    </g>
  </g>
  <g
     inkscape:groupmode="layer"
     id="layer5"
     inkscape:label="string" />
</svg>
